<svg xmlns="http://www.w3.org/2000/svg" width="183" height="30" viewBox="0 0 183 30">
    <path fill="#636363" d="M115.961 6.474h60.175c3.313 0 6 2.686 6 6v4.543c0 3.314-2.687 6-6 6H115.96V6.474zm6.147 12.227l.842-1.63h3.625l.233 1.63h1.93l-1.593-9.063h-2.214l-4.778 9.063h1.955zm4.22-3.301h-2.51l1.967-3.78.544 3.78zm5.076 3.301l.609-3.495h3.521l.311-1.71h-3.522l.376-2.149h3.612l.311-1.709h-5.412l-1.592 9.063h1.786zm6.72 0l.608-3.495h3.522l.31-1.71h-3.52l.375-2.149h3.612l.31-1.709h-5.411l-1.593 9.063h1.787zm6.72 0l1.592-9.063h-1.787l-1.592 9.063h1.786zm6.926 0l.298-1.709h-3.457l1.295-7.354h-1.787l-1.295 7.354-.297 1.71h5.243zm2.797 0l1.592-9.063h-1.786l-1.593 9.063h1.787zm2.822 0l.842-1.63h3.625l.233 1.63h1.93l-1.593-9.063h-2.214l-4.778 9.063h1.955zm4.221-3.301h-2.512l1.968-3.78.544 3.78zm6.176 3.301l1.295-7.354h2.447l.297-1.709h-6.667l-.298 1.71h2.434l-1.295 7.353h1.787zm9.05 0l.298-1.709h-3.82l.363-2.032h3.418l.31-1.67h-3.443l.35-1.943h3.754l.298-1.709h-5.542l-1.592 9.063h5.606zm-86.77 4.316V0h3.597v23.017h-3.596zm23.018-16.543v16.543h-12.156c-2.59 0-4.388-1.654-4.388-4.244v-7.48c0-2.59 1.799-4.82 4.388-4.82h12.156zm-3.596 3.596h-7.553c-1.079 0-1.798 1.079-1.798 2.014v5.682c0 1.007.863 1.655 1.798 1.655h7.553V10.07zM87.19 6.474v16.543H74.674c-2.59 0-4.028-1.654-4.028-4.244v-7.48c0-2.59 1.51-4.82 4.028-4.82H87.19zm-3.597 3.596h-7.912c-1.079 0-1.439 1.079-1.439 2.014v5.682c0 1.007.504 1.655 1.439 1.655h7.912V10.07zM56.26 23.017V0h-3.596v23.017h3.596zM68.416 6.474H63.67l-6.833 8.271 6.833 8.272h4.747l-6.833-8.272 6.833-8.271zm-25.103 0h-11.94c-2.59 0-4.604 2.157-4.604 4.819v7.552c0 2.59 2.014 4.172 4.604 4.172h8.344v1.295c0 1.007-.792 1.582-1.727 1.582h-3.668l-3.812-.072 2.805 3.669h5.682c2.59 0 4.316-1.51 4.316-4.1V6.474zM32.452 19.42c-1.007 0-2.086-.648-2.086-1.655v-5.754c0-.935 1.007-2.014 2.086-2.014h7.265v9.423h-7.265zm-8.56-12.947v16.543h-3.596V6.474h3.596zm-3.596-2.878V0h3.596v3.596h-3.596zm29.49 2.878v16.543H46.19V6.474h3.597zM46.19 3.596V0h3.597v3.596H46.19zM13.822 0v6.546-.072H5.191C2.6 6.474.875 8.63.875 11.22v7.48c0 2.59 1.798 4.316 4.316 4.316h12.228V0h-3.597zm0 19.42H6.198c-1.007 0-1.727-.575-1.727-1.51V12.012c0-.935.72-1.942 1.727-1.942H13.822v9.35z"/>
</svg>
